<svg width="280" height="84" viewBox="0 0 280 84" fill="none" xmlns="http://www.w3.org/2000/svg">
  <!-- Faux brand: large multi-category retail -->
  <path d="M18 58c10-18 14-18 24 0s14 18 24 0" stroke="#111111" stroke-width="3" stroke-linecap="round" stroke-linejoin="round"/>
  <path d="M18 36c10-18 14-18 24 0s14 18 24 0" stroke="#111111" stroke-opacity="0.35" stroke-width="2.5" stroke-linecap="round" stroke-linejoin="round"/>
  <path d="M18 24h48" stroke="#111111" stroke-width="3" stroke-linecap="round"/>

  <g fill="#111111">
    <path d="M86 34h22.3v5.1H92.1v8h14.8v5H92.1v14H86V34z"/>
    <path d="M116.1 34h6.1v27h16v5h-22.1V34z"/>
    <path d="M143.4 50c0-9.4 7.3-16.6 17-16.6s17 7.2 17 16.6-7.3 16.6-17 16.6-17-7.2-17-16.6zm27.8 0c0-6.3-4.7-11.3-10.8-11.3s-10.8 5-10.8 11.3 4.7 11.3 10.8 11.3 10.8-5 10.8-11.3z"/>
    <path d="M185.2 34h6.1v32h-6.1V34z"/>
    <path d="M200.2 34h23v5.1h-16.9v7.7h15.6v5h-15.6V61h17.1v5h-23.2V34z"/>
  </g>

  <g fill="#111111" opacity="0.62">
    <path d="M86 26h42v2.6H86V26z"/>
    <path d="M86 70h96v2.6H86V70z"/>
  </g>
</svg>
