<svg width="280" height="84" viewBox="0 0 280 84" fill="none" xmlns="http://www.w3.org/2000/svg">
  <!-- Faux brand: mid-market apparel -->
  <path d="M24 30l16-12 16 12" stroke="#111111" stroke-width="3" stroke-linecap="round" stroke-linejoin="round"/>
  <path d="M32 28v-4c0-4 3-7 7-7s7 3 7 7v4" stroke="#111111" stroke-opacity="0.35" stroke-width="2.5" stroke-linecap="round"/>
  <path d="M24 30v40h32V30" stroke="#111111" stroke-width="3" stroke-linejoin="round"/>

  <g fill="#111111">
    <path d="M86 34h6.3l8.2 20.8L108.7 34h6.2l-13.3 32h-2.9L86 34z"/>
    <path d="M121.5 34h6.1v32h-6.1V34z"/>
    <path d="M136.5 34h12.8c9.8 0 16.6 6.5 16.6 16s-6.8 16-16.6 16h-12.8V34zm12.6 26.7c6.2 0 10.6-4.1 10.6-10.7s-4.4-10.7-10.6-10.7h-6.5v21.4h6.5z"/>
    <path d="M173.6 34h23v5.1h-16.9v7.7h15.6v5h-15.6V61h17.1v5h-23.2V34z"/>
  </g>

  <g fill="#111111" opacity="0.62">
    <path d="M86 26h58v2.6H86V26z"/>
    <path d="M86 70h86v2.6H86V70z"/>
  </g>
</svg>
