<svg version="1.2" xmlns="http://www.w3.org/2000/svg" viewBox="0 0 1619 439" width="1619" height="439" role="img" aria-label="Zapier">
  <title>Zapier</title>
  <style>
    .zapier-text { fill: #201515; }
    .zapier-bar { fill: #ff4f00; }
  </style>
  <path class="zapier-text" d="m380.3 300.8l-0.2-0.7 143.9-131.9v-63.5h-230.9v63.5h137.9l0.2 0.6-142.5 132v63.6h237.6v-63.6z"/>
  <path fill-rule="evenodd" class="zapier-text" d="m753.3 126q26.3 27.4 26.3 77.3v160.9h-63.5l-9.6-63.5h-2.6c-3.4 14.4-9.8 28.1-18.7 40q-22.7 29-64.9 29-33.9 0.1-56.4-18.6-22.4-18.7-22.4-57.1 0-37.4 22.4-60.3 22.5-22.8 73.9-22.8h67.4v-6.9c0-13.9-3.2-24.4-9.6-32q-9.6-11.5-30.9-11.5c-10.9-0.5-21.5 2.8-30.1 9.4q-11.4 9.3-15.2 31.7l-70.1-9.8c1.8-16.9 7.3-33.3 15.9-48 8.9-14.5 22.1-26.1 37.7-33.1q25.2-12.1 65.1-12.1 59.1 0 85.3 27.4zm-51.8 156.6c2.6-5.6 3.9-11.8 3.8-18v-4.3h-66.3c-3.3-0.2-6.6 0.3-9.7 1.4-3.1 1.1-5.9 2.9-8.3 5.1-2.2 2.4-4 5.1-5.1 8.1-1.1 3-1.6 6.3-1.5 9.5-0.1 3.4 0.6 6.8 2 9.9 1.3 3.1 3.4 5.9 6 8.2q7.9 7.1 28.2 7.1c16.4 0 29.6-4.2 39.6-12.6 4.9-3.9 8.7-8.8 11.3-14.4z"/>
  <path class="zapier-text" d="m1088.4 104.7h75v259.7h-75z"/>
  <path class="zapier-text" d="m1606.2 104.7q-31.8 0-50.1 22.4-13.1 16.2-20 47.7h-2.2l-9.8-70.1h-64v259.7h75v-133.2q0-25.2 11.7-38.6 11.8-13.5 43.5-13.5h28.5v-74.4z"/>
  <path fill-rule="evenodd" class="zapier-text" d="m1425 156.2c9 19.7 13.5 41.3 13.1 63v16.2q0 7.4-1.1 18.4h-177c2.1 15.6 6.6 27.7 13.9 36.1q15 17.5 45.6 17.5 25.7 0 36.7-10.9c7.2-7.3 12.5-16.4 15.2-26.3l64.6 18.1c-4.2 15.2-11.2 29.6-20.5 42.4-9.9 13-22.9 23.3-37.8 29.9q-23.8 10.9-59.4 10.9-41.1 0-70.9-17.2c-19.7-11.4-35.7-28.2-46-48.5-11.2-22.8-16.7-48-16.1-73.4q0-63.1 35.6-98.9 35.5-35.9 98.5-35.9 40-0.1 66.2 15.6c17.2 10 30.9 25 39.4 43zm-151.6 20.8c-6.2 8-10.3 17.4-12 27.4h107.5q-6.1-44.9-51.7-44.9-29-0.1-43.8 17.5z"/>
  <path class="zapier-text" d="m1126.7 0c-5.6-0.2-11.2 0.8-16.5 2.8-5.3 2-10.1 5.1-14.1 9-4 4-7.2 8.7-9.2 14-2.1 5.2-3.1 10.8-2.9 16.5-0.2 5.6 0.8 11.3 2.9 16.6 2 5.2 5.2 10 9.2 14 4 4 8.8 7.2 14.1 9.3 5.2 2 10.9 3 16.5 2.8 5.7 0.2 11.3-0.8 16.5-2.8 5.3-2.1 10-5.3 14-9.3 3.9-4 6.9-8.8 9-14.1 2-5.3 2.9-10.9 2.7-16.5 0.3-5.7-0.6-11.3-2.7-16.5-2-5.2-5.1-10-9.1-13.9-3.9-4-8.7-7.1-13.9-9.1-5.2-2.1-10.8-3-16.4-2.7z"/>
  <path fill-rule="evenodd" class="zapier-text" d="m1042.7 133.5q23.8 35.9 23.8 99.4 0 65.7-24.6 102.5-24.6 36.7-71.7 36.7c-15.5 0.4-30.8-3.3-44.3-10.7-13.1-7.9-23.5-19.5-29.9-33.4-4.1-8.5-7.3-17.5-9.6-26.7h-2.7v137.7h-75v-334.2h64.1l9.8 70.1h2.4q8-35.4 25.2-53.2 23.3-24.1 61.6-24.1 47.1 0 70.9 35.9zm-63.2 152.3q13.2-19 13.1-52.4 0-32.3-12.9-50.4-12.9-18.1-41.3-18.1-25.7-0.2-40.2 17-14.6 17.1-14.6 49.4v5q0 31.8 14.6 50.1c4.7 6 10.8 10.9 17.8 14.1 7 3.1 14.7 4.6 22.4 4.3q27.9 0 41-19z"/>
  <path class="zapier-bar" d="m0.3 300.8h259.4v63.6h-259.4z"/>
</svg>
