<svg xmlns="http://www.w3.org/2000/svg" viewBox="0 0 800 450" fill="none">
  <rect width="800" height="450" fill="#f0fdfa"/>
  <rect x="0" y="0" width="800" height="48" fill="#ffffff" stroke="#99f6e4"/>
  <rect x="32" y="16" width="56" height="16" rx="2" fill="#0f766e"/>
  <rect x="600" y="18" width="56" height="12" rx="2" fill="#ccfbf1"/>
  <rect x="672" y="18" width="56" height="12" rx="2" fill="#ccfbf1"/>
  <rect x="744" y="14" width="24" height="20" rx="12" fill="#14b8a6"/>
  <rect x="32" y="72" width="736" height="160" rx="4" fill="#ecfdf5" stroke="#99f6e4"/>
  <rect x="56" y="96" width="180" height="12" rx="2" fill="#115e59"/>
  <rect x="56" y="120" width="120" height="32" rx="2" fill="#0d9488"/>
  <rect x="56" y="164" width="80" height="10" rx="2" fill="#5eead4"/>
  <path d="M56 200 H720" stroke="#0d9488" stroke-width="2" opacity="0.2"/>
  <path d="M56 220 H680" stroke="#0d9488" stroke-width="2" opacity="0.15"/>
  <path d="M56 200 L120 180 L200 210 L280 160 L360 190 L440 150 L520 170 L600 140 L680 165 L720 155" stroke="#14b8a6" stroke-width="2.5" fill="none"/>
  <rect x="32" y="256" width="224" height="160" rx="4" fill="#ffffff" stroke="#99f6e4"/>
  <rect x="48" y="272" width="96" height="10" rx="2" fill="#115e59"/>
  <rect x="48" y="292" width="192" height="8" rx="2" fill="#a7f3d0"/>
  <rect x="48" y="308" width="176" height="8" rx="2" fill="#a7f3d0"/>
  <rect x="48" y="324" width="160" height="8" rx="2" fill="#a7f3d0"/>
  <rect x="272" y="256" width="224" height="160" rx="4" fill="#ffffff" stroke="#99f6e4"/>
  <rect x="288" y="272" width="112" height="10" rx="2" fill="#115e59"/>
  <rect x="288" y="292" width="192" height="8" rx="2" fill="#a7f3d0"/>
  <rect x="288" y="308" width="168" height="8" rx="2" fill="#a7f3d0"/>
  <rect x="512" y="256" width="256" height="160" rx="4" fill="#ffffff" stroke="#99f6e4"/>
  <rect x="528" y="272" width="128" height="10" rx="2" fill="#115e59"/>
  <rect x="528" y="296" width="104" height="28" rx="2" fill="#0d9488"/>
  <rect x="640" y="296" width="104" height="28" rx="2" fill="#ecfdf5" stroke="#0d9488"/>
</svg>
