<svg xmlns="http://www.w3.org/2000/svg" viewBox="0 0 800 450" fill="none">
  <rect width="800" height="450" fill="#fff7ed"/>
  <rect x="0" y="0" width="800" height="48" fill="#ffffff" stroke="#fed7aa"/>
  <rect x="32" y="16" width="72" height="16" rx="2" fill="#c2410c"/>
  <rect x="520" y="18" width="48" height="12" rx="2" fill="#ffedd5"/>
  <rect x="584" y="18" width="48" height="12" rx="2" fill="#ffedd5"/>
  <rect x="648" y="18" width="48" height="12" rx="2" fill="#ffedd5"/>
  <rect x="712" y="14" width="56" height="20" rx="2" fill="#ea580c"/>
  <rect x="32" y="72" width="280" height="24" rx="2" fill="#ea580c"/>
  <rect x="32" y="108" width="360" height="14" rx="2" fill="#fdba74"/>
  <rect x="32" y="132" width="320" height="14" rx="2" fill="#fdba74"/>
  <rect x="32" y="168" width="120" height="36" rx="2" fill="#c2410c"/>
  <rect x="32" y="232" width="168" height="168" rx="4" fill="#ffffff" stroke="#fed7aa"/>
  <rect x="48" y="248" width="136" height="96" rx="2" fill="#ffedd5"/>
  <rect x="48" y="356" width="80" height="10" rx="2" fill="#fdba74"/>
  <rect x="48" y="374" width="48" height="12" rx="2" fill="#c2410c"/>
  <rect x="216" y="232" width="168" height="168" rx="4" fill="#ffffff" stroke="#fed7aa"/>
  <rect x="232" y="248" width="136" height="96" rx="2" fill="#ffedd5"/>
  <rect x="232" y="356" width="80" height="10" rx="2" fill="#fdba74"/>
  <rect x="232" y="374" width="48" height="12" rx="2" fill="#c2410c"/>
  <rect x="400" y="232" width="168" height="168" rx="4" fill="#ffffff" stroke="#fed7aa"/>
  <rect x="416" y="248" width="136" height="96" rx="2" fill="#ffedd5"/>
  <rect x="416" y="356" width="80" height="10" rx="2" fill="#fdba74"/>
  <rect x="416" y="374" width="48" height="12" rx="2" fill="#c2410c"/>
  <rect x="584" y="232" width="184" height="168" rx="4" fill="#ffffff" stroke="#fed7aa"/>
  <rect x="600" y="248" width="152" height="96" rx="2" fill="#ffedd5"/>
  <rect x="600" y="356" width="80" height="10" rx="2" fill="#fdba74"/>
  <rect x="600" y="374" width="48" height="12" rx="2" fill="#c2410c"/>
</svg>
